<svg width="95" height="105" viewBox="0 0 95 105" fill="none" xmlns="http://www.w3.org/2000/svg">
<path d="M69 54.3125C67.4583 54.3125 66.0833 54.5417 64.875 55C63.625 55.4583 62.4792 56.2917 61.4375 57.5C60.3958 58.7083 59.3542 60.4167 58.3125 62.625C57.2292 64.8333 56.125 67.7292 55 71.3125C53.6667 75.3958 52.1667 79.2917 50.5 83C48.7917 86.6667 46.8125 89.9375 44.5625 92.8125C42.3125 95.6875 39.6875 97.9583 36.6875 99.625C33.6875 101.25 30.1875 102.062 26.1875 102.062C22.3125 102.062 18.8125 101.208 15.6875 99.5C12.5625 97.7917 9.89583 95.3958 7.6875 92.3125C5.4375 89.2292 3.72917 85.6042 2.5625 81.4375C1.35417 77.2708 0.749998 72.6875 0.749998 67.6875C0.749998 61.0208 1.9375 55.1667 4.3125 50.125C6.64583 45.0417 9.9375 41.0833 14.1875 38.25C18.3958 35.4167 23.2917 34 28.875 34L28.875 54.25C26.4167 54.25 24.25 54.7708 22.375 55.8125C20.4583 56.8125 18.9583 58.3542 17.875 60.4375C16.7917 62.4792 16.25 65.0417 16.25 68.125C16.25 71.125 16.7083 73.6458 17.625 75.6875C18.5 77.6875 19.7083 79.2083 21.25 80.25C22.7917 81.25 24.4792 81.75 26.3125 81.75C27.7708 81.75 29.1042 81.375 30.3125 80.625C31.4792 79.8333 32.5833 78.7083 33.625 77.25C34.625 75.75 35.5833 73.9167 36.5 71.75C37.4167 69.5833 38.2917 67.1042 39.125 64.3125C40.6667 59.4375 42.375 55.125 44.25 51.375C46.125 47.5833 48.25 44.3958 50.625 41.8125C53 39.2292 55.6875 37.2917 58.6875 36C61.6875 34.6667 65.0833 34 68.875 34C72.9167 34 76.5 34.7917 79.625 36.375C82.75 37.9167 85.4167 40.1667 87.625 43.125C89.7917 46.0417 91.4375 49.5417 92.5625 53.625C93.6875 57.7083 94.25 62.2708 94.25 67.3125C94.25 71.8958 93.6667 76.4167 92.5 80.875C91.2917 85.3333 89.4583 89.375 87 93C84.5417 96.5833 81.4167 99.4583 77.625 101.625C73.7917 103.75 69.25 104.812 64 104.812L64 84.4375C66.75 84.4375 69.0833 84.0417 71 83.25C72.875 82.4583 74.3958 81.3333 75.5625 79.875C76.7292 78.375 77.5625 76.5625 78.0625 74.4375C78.5625 72.3125 78.8125 69.9375 78.8125 67.3125C78.8125 64.2708 78.3958 61.8125 77.5625 59.9375C76.6875 58.0208 75.5 56.6042 74 55.6875C72.5 54.7708 70.8333 54.3125 69 54.3125ZM83.75 21.9375C80.9167 21.9375 78.5417 20.9375 76.625 18.9375C74.7083 16.8958 73.75 14.25 73.75 11C73.75 7.70833 74.7083 5.08333 76.625 3.125C78.5417 1.125 80.9167 0.124995 83.75 0.124995C86.5417 0.124995 88.8958 1.12499 90.8125 3.12499C92.7292 5.08333 93.6875 7.70833 93.6875 11C93.6875 14.25 92.7292 16.8958 90.8125 18.9375C88.8958 20.9375 86.5417 21.9375 83.75 21.9375Z" fill="#008A41"/>
</svg>
