<svg width="32" height="36" viewBox="0 0 32 36" fill="none" xmlns="http://www.w3.org/2000/svg">
<path d="M23.3583 18.6341C22.8306 18.6341 22.3601 18.7129 21.9465 18.8705C21.5187 19.0281 21.1266 19.3147 20.7701 19.7302C20.4135 20.1458 20.0571 20.7332 19.7005 21.4926C19.3298 22.252 18.9519 23.2479 18.5668 24.4801C18.1105 25.8843 17.5972 27.224 17.0267 28.4992C16.4421 29.7602 15.7647 30.8849 14.9947 31.8736C14.2246 32.8623 13.3262 33.6431 12.2995 34.2163C11.2727 34.7751 10.0749 35.0543 8.70588 35.0543C7.37968 35.0543 6.18182 34.7606 5.1123 34.1733C4.04278 33.5858 3.13012 32.7619 2.37433 31.7016C1.60428 30.6414 1.01961 29.3948 0.620321 27.9619C0.206775 26.5291 0 24.953 0 23.2335C0 20.941 0.406418 18.9279 1.21925 17.1941C2.01782 15.4461 3.14439 14.0848 4.59893 13.1105C6.0392 12.1362 7.71481 11.649 9.62567 11.649V18.6126C8.78433 18.6126 8.04278 18.7917 7.40107 19.1499C6.74509 19.4938 6.23172 20.024 5.86096 20.7404C5.49021 21.4425 5.30481 22.3237 5.30481 23.384C5.30481 24.4156 5.46166 25.2825 5.7754 25.9846C6.07487 26.6724 6.4884 27.1953 7.01604 27.5536C7.54368 27.8974 8.12122 28.0694 8.74866 28.0694C9.24776 28.0694 9.70411 27.9404 10.1176 27.6825C10.5169 27.4103 10.8948 27.0234 11.2513 26.5219C11.5936 26.0061 11.9216 25.3757 12.2353 24.6306C12.549 23.8855 12.8485 23.033 13.1337 22.0729C13.6613 20.3965 14.246 18.9135 14.8877 17.624C15.5294 16.3201 16.2567 15.2239 17.0695 14.3356C17.8824 13.4472 18.8021 12.781 19.8289 12.3368C20.8556 11.8783 22.0178 11.649 23.3155 11.649C24.6988 11.649 25.9251 11.9213 26.9947 12.4657C28.0642 12.9959 28.9768 13.7696 29.7326 14.7869C30.4742 15.7899 31.0374 16.9935 31.4225 18.3977C31.8075 19.8019 32 21.3708 32 23.1046C32 24.6807 31.8004 26.2354 31.4011 27.7685C30.9875 29.3016 30.3601 30.6915 29.5187 31.9381C28.6774 33.1703 27.6079 34.159 26.3102 34.904C24.9982 35.6348 23.4438 36 21.6471 36V28.9936C22.5882 28.9936 23.3868 28.8575 24.0428 28.5852C24.6845 28.313 25.205 27.9261 25.6043 27.4246C26.0036 26.9088 26.2888 26.2855 26.4599 25.5548C26.631 24.824 26.7166 24.0073 26.7166 23.1046C26.7166 22.0586 26.574 21.2132 26.2888 20.5685C25.9893 19.9093 25.5829 19.4222 25.0695 19.107C24.5561 18.7917 23.9857 18.6341 23.3583 18.6341ZM28.4064 7.50093C27.4367 7.50093 26.6239 7.15705 25.9679 6.46929C25.3119 5.76718 24.984 4.85734 24.984 3.73972C24.984 2.60777 25.3119 1.70508 25.9679 1.03165C26.6239 0.343884 27.4367 0 28.4064 0C29.3619 0 30.1675 0.343881 30.8235 1.03165C31.4795 1.70508 31.8075 2.60777 31.8075 3.73972C31.8075 4.85734 31.4795 5.76718 30.8235 6.46929C30.1675 7.15705 29.3619 7.50093 28.4064 7.50093Z" fill="white"/>
</svg>
