<svg width="382" height="294" viewBox="0 0 382 294" fill="none" xmlns="http://www.w3.org/2000/svg">
<g clip-path="url(#clip0_238_220)">
<path d="M382 236.233L264.821 282.541L239.183 292.674L183.727 273.321L136.4 256.808L132.469 255.437L126.708 240.829L103.802 182.758L92.305 153.603L88.8475 144.84L86.3473 138.498L80.7739 124.367L71.7491 101.491L91.4594 93.7034L110.284 86.2631L123.815 80.9168L294.182 13.5906L382 236.233Z" fill="#F2F2F2"/>
<path d="M16.089 141.212C16.7824 140.74 17.5619 140.409 18.383 140.239C19.204 140.068 20.0506 140.062 20.8743 140.219C21.698 140.376 22.4828 140.694 23.1837 141.154C23.8847 141.615 24.4882 142.209 24.9597 142.903C25.4312 143.597 25.7615 144.377 25.9318 145.199C26.1021 146.021 26.1089 146.868 25.952 147.693C25.7951 148.517 25.4775 149.303 25.0174 150.005C24.5572 150.706 23.9635 151.31 23.2701 151.782C20.3516 153.768 10.1732 152.967 10.1732 152.967C10.1732 152.967 13.1706 143.197 16.089 141.212Z" fill="#008A41"/>
<path d="M2.44682 253.243C2.98349 252.598 3.64183 252.065 4.38425 251.675C5.12667 251.285 5.93864 251.044 6.77378 250.968C7.60892 250.892 8.45089 250.981 9.25162 251.231C10.0523 251.48 10.7961 251.885 11.4405 252.422C12.0849 252.959 12.6173 253.618 13.0073 254.361C13.3973 255.104 13.6372 255.917 13.7134 256.753C13.7895 257.589 13.7005 258.432 13.4513 259.233C13.202 260.035 12.7976 260.779 12.2609 261.424C10.0047 264.137 -0.000366211 266.176 -0.000366211 266.176C-0.000366211 266.176 0.188724 255.956 2.44682 253.243Z" fill="#008A41"/>
<path d="M268.805 65.5405C258.519 48.1431 238.168 47.3306 238.168 47.3306C238.168 47.3306 218.337 44.7922 205.616 71.2884C193.759 95.9846 177.396 119.83 202.982 125.611L207.604 111.213L210.466 126.683C214.109 126.945 217.764 127.008 221.414 126.87C248.815 125.985 274.911 127.129 274.071 117.287C272.954 104.205 278.703 82.2798 268.805 65.5405Z" fill="#090814"/>
<path d="M226.583 101.951C230.128 109.799 232.361 119.153 233.698 129.544L262.154 127.764C255.612 118.484 253.44 107.833 255.93 95.7203L226.583 101.951Z" fill="#ED9DA0"/>
<path d="M92.9488 251.369C92.9488 251.369 75.8748 260.523 84.539 268.336C93.2033 276.149 104.648 257.994 104.648 257.994L92.9488 251.369Z" fill="#ED9DA0"/>
<path d="M274.603 228.344L274.373 239.132L273.882 262.441L273.47 282.216L243.649 294L179.146 271.492L183.39 247.905L186.817 228.86L188.345 220.333L265.713 209.652L274.603 228.344Z" fill="#090814"/>
<path d="M274.604 228.344L274.373 239.132C247.002 238.429 204.575 231.816 186.817 228.861L188.345 220.333L265.71 209.652L274.604 228.344Z" fill="#005E2C"/>
<path d="M240.368 109.517C252.646 109.517 262.599 99.5541 262.599 87.2644C262.599 74.9747 252.646 65.012 240.368 65.012C228.09 65.012 218.136 74.9747 218.136 87.2644C218.136 99.5541 228.09 109.517 240.368 109.517Z" fill="#ED9DA0"/>
<path d="M283.052 240.361C283.052 240.361 285.72 264.393 269.713 262.613L267.045 238.581L252.816 224.338L212.801 223.448L183.456 251.041C183.456 251.041 182.566 222.558 186.123 219.888C189.68 217.218 197.684 210.987 197.684 210.987V206.536L173.674 157.582C173.674 157.582 187.903 128.209 199.462 127.319L214.579 126.429C214.579 126.429 219.915 123.758 219.915 122.868C219.915 121.978 219.026 114.857 223.472 116.638C223.472 116.638 223.872 107.506 228.558 110.292C228.558 110.292 243.313 121.863 258.286 110.799C258.286 110.799 265.267 109.517 264.377 113.078C263.488 116.638 264.377 119.308 266.156 119.308C267.935 119.308 275.938 121.978 275.938 123.759C275.938 124.141 276.516 127.827 277.423 133.372V133.381C280.722 153.595 288.387 198.526 288.387 198.526C288.387 198.526 296.391 210.097 283.052 240.361Z" fill="#008A41"/>
<path d="M179.898 153.131L173.673 157.582L116.761 230.57L86.5264 254.602C86.5264 254.602 103.422 251.932 99.8653 266.174L203.908 206.537L179.898 153.131Z" fill="#008A41"/>
<path d="M277.423 133.371V133.38C276.24 140.34 237.7 138.89 232.364 138.89C227.029 138.89 222.583 138 217.247 134.439C211.912 130.878 214.579 126.428 214.579 126.428C214.579 126.428 219.122 122.964 219.122 122.075C219.122 121.185 218.233 114.064 222.679 115.844C222.679 115.844 223.079 106.712 227.766 109.498C227.766 109.498 243.311 121.862 258.286 110.798C258.286 110.798 265.267 109.516 264.377 113.077C263.488 116.638 264.377 119.308 266.156 119.308C267.935 119.308 275.938 121.978 275.938 123.758C275.938 124.141 276.515 127.826 277.423 133.371Z" fill="#005E2C"/>
<path d="M272.825 100.171C272.825 100.171 265.711 85.039 258.596 92.1596C251.481 99.2801 266.599 109.961 266.599 109.961L272.825 100.171Z" fill="#ED9DA0"/>
<path d="M272.825 96.6103C272.825 96.6103 261.84 110.506 258.44 111.57C258.44 111.57 268.379 150.906 280.829 161.588L287.944 198.082C287.944 198.082 318.176 185.62 311.062 165.148L310.849 164.537C304.909 147.488 296.711 131.314 286.475 116.446L272.825 96.6103Z" fill="#008A41"/>
<path opacity="0.2" d="M266.956 137.826L288.832 198.081L280.828 161.587L266.956 137.826Z" fill="black"/>
<path d="M264.257 63.8629L244.152 53.3217L216.387 57.6343L210.643 83.0293L224.943 82.4787L228.937 73.1486V82.3253C231.117 80.2314 233.094 77.9358 234.842 75.469C236.584 72.8541 238.098 70.0932 239.365 67.2172C239.365 67.2172 241.242 74.8702 247.704 78.7033C254.167 82.5365 265.215 82.5499 265.215 82.5499L264.257 63.8629Z" fill="#090814"/>
<path d="M91.7775 262.265C77.9567 254.554 69.3527 244.025 66.2045 230.972C63.8648 221.28 64.5385 210.374 68.2009 198.557C70.9156 189.845 74.9858 181.615 80.2616 174.172C108.251 134.516 110.777 108.676 107.968 93.982C104.888 77.8703 94.8798 71.179 94.7791 71.1135L95.2088 70.4487C95.312 70.5161 105.584 77.3627 108.738 93.8014C110.557 103.278 109.701 114.084 106.196 125.92C101.832 140.649 93.3241 157.038 80.9072 174.63C75.6794 182.005 71.6461 190.16 68.9559 198.793C62.9494 218.174 62.0999 244.799 92.1624 261.573L91.7775 262.265Z" fill="#2F2E41"/>
<path d="M66.5353 188.836C55.6397 182.756 55.9429 173.122 58.116 166.11C59.0796 163.017 60.5244 160.096 62.3973 157.454C72.2028 143.561 73.089 134.536 72.1058 129.411C71.0377 123.846 67.6121 121.562 67.5777 121.539L68.0075 120.874C68.1598 120.973 71.7511 123.368 72.8823 129.262C74.3549 136.936 71.0444 146.575 63.0429 157.911C61.2186 160.485 59.8113 163.331 58.8729 166.344C56.7867 173.076 56.4897 182.323 66.9211 188.143L66.5353 188.836Z" fill="#2F2E41"/>
<path d="M115.557 100.788L115.171 100.095C125.602 94.2741 125.305 85.0276 123.219 78.2961C122.28 75.2829 120.872 72.4368 119.048 69.8627C111.046 58.5262 107.736 48.8868 109.208 41.2133C110.339 35.3202 113.931 32.9247 114.083 32.8257L114.516 33.4906C114.481 33.5135 111.037 35.8282 109.979 41.394C109.007 46.5157 109.902 55.5327 119.694 69.4048C121.566 72.047 123.011 74.9683 123.974 78.061C126.149 85.073 126.453 94.709 115.557 100.788Z" fill="#2F2E41"/>
<path d="M138.82 61.3236C137.971 62.6392 136.869 63.7739 135.58 64.6626C134.291 65.5512 132.84 66.1763 131.309 66.502C129.778 66.8277 128.198 66.8475 126.659 66.5603C125.12 66.2732 123.653 65.6847 122.342 64.8287C121.032 63.9726 119.902 62.8659 119.02 61.572C118.137 60.2781 117.519 58.8225 117.2 57.2887C116.881 55.7549 116.868 54.1732 117.161 52.6342C117.454 51.0953 118.048 49.6295 118.909 48.3209C122.496 42.8173 140.556 36.8849 140.556 36.8849C140.556 36.8849 142.407 55.82 138.82 61.3236Z" fill="#008A41"/>
<path d="M134.462 24.4386C133.612 25.7543 132.511 26.889 131.222 27.7776C129.933 28.6663 128.481 29.2914 126.95 29.617C125.419 29.9427 123.839 29.9625 122.3 29.6754C120.762 29.3882 119.295 28.7997 117.984 27.9437C116.673 27.0877 115.544 25.981 114.661 24.6871C113.779 23.3931 113.16 21.9375 112.841 20.4038C112.522 18.87 112.509 17.2882 112.802 15.7493C113.095 14.2104 113.689 12.7445 114.55 11.436C118.137 5.93234 136.197 0 136.197 0C136.197 0 138.049 18.935 134.462 24.4386Z" fill="#008A41"/>
<path d="M115.302 159.571C112.513 159.575 109.807 158.629 107.626 156.889C105.446 155.149 103.922 152.718 103.306 149.996C102.689 147.274 103.016 144.423 104.233 141.911C105.45 139.4 107.484 137.378 110.002 136.177C115.985 133.323 133.931 137.501 134.692 137.68L135.174 137.793L134.958 138.239C134.618 138.943 126.551 155.524 120.567 158.377C118.923 159.163 117.124 159.572 115.302 159.571ZM116.301 135.977C113.866 135.977 111.735 136.229 110.341 136.894C107.589 138.205 105.471 140.558 104.453 143.433C103.434 146.308 103.598 149.47 104.909 152.224C106.219 154.978 108.569 157.098 111.442 158.118C114.314 159.138 117.474 158.973 120.225 157.661C125.43 155.179 132.671 141.052 134.022 138.342C131.858 137.861 122.956 135.977 116.301 135.977Z" fill="#2F2E41"/>
<path d="M91.0779 50.4067C92.2406 51.457 93.1845 52.727 93.8553 54.1436C94.5262 55.5602 94.9107 57.0955 94.9869 58.6613C95.0631 60.2271 94.8294 61.7926 94.2992 63.2677C93.769 64.7429 92.9528 66.0986 91.8976 67.257C90.8423 68.4154 89.5687 69.3537 88.15 70.0179C86.7314 70.6821 85.1955 71.0591 83.6308 71.1273C82.0661 71.1955 80.5033 70.9536 79.0323 70.4153C77.5613 69.8771 76.2111 69.0532 75.0592 67.991C70.2078 63.5633 67.2573 44.7683 67.2573 44.7683C67.2573 44.7683 86.2265 45.979 91.0779 50.4067Z" fill="#008A41"/>
<path d="M63.3413 100.38C64.504 101.431 65.4479 102.701 66.1188 104.117C66.7896 105.534 67.1742 107.069 67.2503 108.635C67.3265 110.201 67.0928 111.766 66.5626 113.241C66.0324 114.717 65.2163 116.072 64.161 117.231C63.1057 118.389 61.8321 119.327 60.4135 119.992C58.9948 120.656 57.459 121.033 55.8942 121.101C54.3295 121.169 52.7668 120.927 51.2958 120.389C49.8248 119.851 48.4745 119.027 47.3226 117.965C42.4712 113.537 39.5208 94.7419 39.5208 94.7419C39.5208 94.7419 58.4899 95.9526 63.3413 100.38Z" fill="#008A41"/>
<path d="M94.4315 107.389C90.4639 107.389 82.876 103.628 82.5288 103.454L82.0862 103.233L82.398 102.851C82.6644 102.523 88.9617 94.8003 92.5038 94.0322C93.3742 93.8436 94.2732 93.8284 95.1494 93.9876C96.0257 94.1467 96.862 94.4771 97.6107 94.9598C98.3594 95.4424 99.0058 96.068 99.513 96.8007C100.02 97.5334 100.378 98.359 100.567 99.2302C100.755 100.101 100.77 101.001 100.611 101.878C100.452 102.755 100.122 103.593 99.64 104.342C99.1578 105.091 98.5328 105.738 97.8008 106.246C97.0687 106.754 96.244 107.112 95.3736 107.301C95.0636 107.364 94.7478 107.393 94.4315 107.39V107.389ZM83.3339 102.963C85.2023 103.856 92.3586 107.141 95.206 106.524C95.9806 106.364 96.7157 106.051 97.369 105.605C98.0223 105.158 98.5808 104.587 99.0122 103.923C99.4436 103.26 99.7394 102.517 99.8826 101.738C100.026 100.96 100.013 100.16 99.846 99.3865C99.6788 98.6126 99.36 97.8796 98.9082 97.2297C98.4564 96.5799 97.8804 96.026 97.2136 95.6002C96.5467 95.1744 95.8022 94.885 95.023 94.7488C94.2438 94.6125 93.4454 94.6322 92.6738 94.8065C89.8236 95.4235 84.6661 101.377 83.3339 102.963Z" fill="#2F2E41"/>
<path d="M52.0943 265.208C52.6187 264.281 53.3204 263.466 54.1594 262.81C54.9984 262.154 55.9583 261.67 56.9843 261.385C58.0102 261.1 59.0822 261.021 60.1389 261.151C61.1956 261.281 62.2164 261.618 63.143 262.142C64.0695 262.667 64.8838 263.37 65.5392 264.209C66.1945 265.049 66.6782 266.01 66.9627 267.037C67.2471 268.064 67.3266 269.137 67.1968 270.195C67.0669 271.252 66.7302 272.274 66.2059 273.201C64.0008 277.102 51.963 281.917 51.963 281.917C51.963 281.917 49.8883 269.109 52.0943 265.208Z" fill="#008A41"/>
<path d="M31.1384 200.703C28.4035 200.66 25.6751 200.424 22.9731 199.999L22.4851 199.92L22.6689 199.46C22.826 199.067 26.5491 189.822 29.704 188.037C31.2695 187.151 33.1227 186.924 34.8556 187.406C36.5885 187.887 38.0594 189.038 38.9445 190.605C39.8297 192.172 40.0567 194.027 39.5755 195.762C39.0944 197.496 37.9445 198.969 36.3789 199.855C35.2453 200.496 33.2494 200.703 31.1384 200.703ZM23.5939 199.291C25.6428 199.588 33.4504 200.599 35.9869 199.164C36.6772 198.779 37.2847 198.262 37.7744 197.642C38.2641 197.021 38.6263 196.31 38.8402 195.549C39.0542 194.788 39.1155 193.992 39.0208 193.207C38.9261 192.422 38.6772 191.663 38.2885 190.975C37.8997 190.287 37.3787 189.682 36.7555 189.196C36.1324 188.71 35.4193 188.352 34.6574 188.143C33.8956 187.935 33.0999 187.879 32.3163 187.979C31.5327 188.079 30.7767 188.333 30.0917 188.727C27.5576 190.162 24.398 197.38 23.5958 199.291H23.5939Z" fill="#2F2E41"/>
</g>
<defs>
<clipPath id="clip0_238_220">
<rect width="382" height="294" fill="white"/>
</clipPath>
</defs>
</svg>
