<svg width="470" height="326" viewBox="0 0 470 326" fill="none" xmlns="http://www.w3.org/2000/svg">
<g clip-path="url(#clip0_238_182)">
<path d="M0 295.947C0.0039949 296.036 0.0255219 296.123 0.0633471 296.204C0.101172 296.285 0.154552 296.357 0.220428 296.417C0.286303 296.477 0.363378 296.524 0.447236 296.554C0.531094 296.584 0.620087 296.597 0.709112 296.593H469.291C469.462 296.593 469.627 296.525 469.748 296.404C469.869 296.283 469.937 296.118 469.937 295.947C469.937 295.775 469.869 295.611 469.748 295.49C469.627 295.368 469.462 295.3 469.291 295.3H0.709112C0.620087 295.296 0.531094 295.309 0.447236 295.34C0.363378 295.37 0.286303 295.416 0.220428 295.476C0.154552 295.536 0.101172 295.609 0.0633471 295.69C0.0255219 295.77 0.0039949 295.858 0 295.947Z" fill="#008A41"/>
<path d="M234.361 112.806L238.767 85.292L209.058 73.186L204.657 115.002L234.361 112.806Z" fill="#EEA4A6"/>
<path d="M226.854 94.1341C243.585 94.1341 257.148 80.5669 257.148 63.8311C257.148 47.0952 243.585 33.5281 226.854 33.5281C210.123 33.5281 196.559 47.0952 196.559 63.8311C196.559 80.5669 210.123 94.1341 226.854 94.1341Z" fill="#EEA4A6"/>
<path d="M224.44 23.0946C225.321 23.6047 226.49 22.8343 226.772 21.8576C227.054 20.8809 226.723 19.8448 226.403 18.884C225.861 17.2726 225.313 15.6553 224.77 14.044C223.61 10.6096 222.378 7.05426 219.872 4.44032C216.081 0.495911 210.06 -0.507822 204.641 0.21912C197.681 1.15233 190.809 4.92045 187.576 11.1573C184.344 17.3942 185.716 26.0946 191.571 29.985C183.234 39.5398 180.327 50.196 180.788 62.8708C181.249 75.5455 195.051 87.2119 204.06 96.1444C206.072 94.9238 207.9 89.21 206.794 87.132C205.687 85.054 207.271 82.6504 205.904 80.7405C204.538 78.8306 203.387 81.8747 204.776 79.9701C205.649 78.7712 202.237 76.0092 203.539 75.2928C209.821 71.8203 211.909 63.9856 215.858 57.9902C218.271 54.38 221.452 51.3477 225.173 49.1098C228.893 46.8719 233.062 45.4837 237.382 45.0445C242.128 44.5944 247.145 45.4083 251.035 48.1644C254.924 50.9206 257.446 55.8446 256.546 60.5319C257.719 59.3396 258.605 57.8951 259.135 56.3085C259.664 54.7218 259.825 53.035 259.604 51.3769C259.383 49.7187 258.786 48.1329 257.859 46.7406C256.932 45.3483 255.699 44.1863 254.255 43.3432C255.1 40.4319 255.193 37.3541 254.528 34.3967C253.862 31.4393 252.458 28.6988 250.447 26.4308C246.39 21.9545 229.922 22.7197 223.999 23.8968" fill="black"/>
<path d="M223.517 45.2097C215.668 46.056 210 52.8599 205.216 59.1374C202.461 62.7562 199.57 66.7553 199.64 71.3074C199.711 75.9082 202.786 79.8532 204.256 84.2155C205.402 87.8113 205.477 91.6629 204.472 95.3007C203.468 98.9385 201.427 102.205 198.599 104.703C204.251 105.778 210.358 101.54 211.335 95.87C212.469 89.2723 207.467 82.9026 208.058 76.2285C208.579 70.3518 213.211 65.8268 217.144 61.4322C221.077 57.0377 224.776 51.2068 222.964 45.5888" fill="black"/>
<path d="M225.021 322.745C225.021 322.745 159.387 329.256 154.505 321.659C149.624 314.063 221.11 306.467 221.11 306.467L225.021 322.745Z" fill="#EEA4A6"/>
<path d="M183.173 201.022L181.817 208.222C185.511 213.675 185.864 219.437 183.715 225.441L258.571 225.983C257.768 217.874 256.884 209.18 259.965 201.209L183.173 201.022Z" fill="#EEA4A6"/>
<path d="M305.783 254.561L278.634 232.836C276.841 231.395 275.352 229.612 274.253 227.591C273.154 225.57 272.466 223.351 272.231 221.062L268.049 179.679L292.973 171.367L298.984 212.343L313.96 246.39L305.794 254.558H305.789L305.783 254.561Z" fill="#EEA4A6"/>
<path d="M201.886 110.14L238.228 108.512L276.741 126.862L261.01 201.836L181.274 207.804L170.425 124.79L201.886 110.14Z" fill="#008A41"/>
<path d="M259.963 219.112C265.427 226.312 267.715 243.648 270.036 260.891C270.036 260.891 169.145 260.349 168.602 260.349C168.06 260.349 184.024 223.996 184.024 223.996L259.963 219.112Z" fill="black"/>
<path d="M263.261 256.289L270.041 260.889C270.041 260.889 366.051 254.379 357.914 284.763C349.778 315.147 324.284 320.03 324.284 320.03L221.223 326L220.138 309.179C220.138 309.179 120.874 331.424 111.653 285.848C102.431 240.272 168.607 260.347 168.607 260.347L263.261 256.289Z" fill="black"/>
<path d="M222.748 292.361C222.748 292.361 225.021 280.424 241.293 285.309C257.566 290.194 266.787 296.703 266.787 296.703L227.733 306.47L222.748 292.361Z" fill="#EEA4A6"/>
<path d="M263.451 125.604C263.451 125.604 281.894 119.093 288.945 140.253C295.997 161.414 294.37 178.777 294.37 178.777L267.248 187.458L263.451 125.604Z" fill="#008A41"/>
<path d="M136.983 257.864L131.067 247.435L143.852 215.602L149.862 174.621L174.787 182.933L170.55 224.82C170.329 226.951 169.688 229.017 168.664 230.898C167.639 232.779 166.253 234.439 164.583 235.78L136.983 257.869V257.864Z" fill="#EEA4A6"/>
<path d="M179.375 125.604C179.375 125.604 160.931 119.093 153.881 140.253C146.831 161.414 148.457 178.777 148.457 178.777L175.578 187.458L179.375 125.604Z" fill="#008A41"/>
<path d="M313.626 259.349C320.816 259.349 326.645 250.726 326.645 240.088C326.645 229.45 320.816 220.827 313.626 220.827C306.436 220.827 300.608 229.45 300.608 240.088C300.608 250.726 306.436 259.349 313.626 259.349Z" fill="#EEA4A6"/>
<path d="M130.829 262.605C138.018 262.605 143.847 253.981 143.847 243.344C143.847 232.706 138.018 224.082 130.829 224.082C123.639 224.082 117.81 232.706 117.81 243.344C117.81 253.981 123.639 262.605 130.829 262.605Z" fill="#EEA4A6"/>
<path d="M180.541 275.541L227.732 289.105L236.956 305.383L219.321 309.181" fill="black"/>
<path d="M52.126 295.946H38.8596L32.826 264.672C32.7343 264.197 32.7488 263.707 32.8684 263.238C32.988 262.769 33.2099 262.332 33.518 261.959C33.8262 261.585 34.213 261.285 34.6509 261.078C35.0887 260.872 35.5668 260.765 36.0508 260.765H54.9371C55.4211 260.765 55.8992 260.872 56.3371 261.078C56.7749 261.285 57.1618 261.585 57.4699 261.959C57.778 262.332 57.9999 262.769 58.1195 263.238C58.2391 263.707 58.2536 264.197 58.1619 264.672L52.126 295.946Z" fill="#008A41"/>
<path d="M44.8303 262.937C48.5275 250.682 47.5176 237.488 41.9986 225.94C41.6155 225.135 40.4206 225.837 40.8025 226.639C44.9016 235.326 46.4352 245.003 45.2228 254.532C44.8714 257.254 44.2932 259.942 43.4944 262.568C43.4519 262.743 43.4793 262.928 43.5707 263.084C43.662 263.239 43.8102 263.352 43.9838 263.4C44.1575 263.448 44.3429 263.427 44.501 263.34C44.659 263.254 44.7771 263.109 44.8303 262.937Z" fill="#008A41"/>
<path d="M47.0041 247.44L56.9393 234.318L55.6468 233.969C55.825 238.434 55.1531 242.893 53.6669 247.107C52.3821 250.737 50.1637 255.472 45.6981 255.618C44.8092 255.647 44.8051 257.033 45.6981 257.004C50.4498 256.849 53.0653 252.484 54.6081 248.534C56.4054 243.896 57.2303 238.939 57.0316 233.969C57.0279 233.818 56.9758 233.673 56.8831 233.554C56.7903 233.436 56.6618 233.35 56.5166 233.311C56.3714 233.271 56.2173 233.279 56.0773 233.334C55.9372 233.389 55.8186 233.488 55.739 233.616L45.8039 246.737C45.2698 247.451 46.4724 248.142 47.0041 247.44Z" fill="#008A41"/>
<path d="M46.4906 241.797L40.6045 233.179C40.5324 233.066 40.4296 232.976 40.3081 232.92C40.1867 232.863 40.0516 232.842 39.9187 232.859C39.7859 232.877 39.6608 232.932 39.558 233.018C39.4552 233.104 39.379 233.217 39.3384 233.345C38.1026 236.585 38.0577 240.16 39.2116 243.43C40.3656 246.701 42.6433 249.455 45.6388 251.202C45.7969 251.286 45.9816 251.306 46.154 251.257C46.3265 251.209 46.4734 251.095 46.5639 250.94C46.6543 250.785 46.6813 250.601 46.6392 250.427C46.597 250.253 46.4891 250.102 46.3379 250.005C43.6059 248.412 41.5334 245.895 40.4948 242.907C39.4561 239.919 39.5199 236.658 40.6744 233.713L39.4083 233.879L45.2945 242.497C45.7945 243.229 46.9953 242.534 46.4906 241.797Z" fill="#008A41"/>
<path d="M41.3065 225.464C39.9447 225.396 38.5283 225.313 37.3885 224.479C36.9578 224.16 36.5909 223.764 36.3069 223.309C36.167 223.092 36.0476 222.862 35.9503 222.622C35.8482 222.393 35.7866 222.148 35.7682 221.898C35.8346 221.844 35.7682 221.964 35.7682 221.898L35.6689 221.977C35.6331 222.025 35.5808 222.058 35.5221 222.07C35.4634 222.082 35.4023 222.072 35.3505 222.042C35.2424 222.056 35.317 221.875 35.297 222.197C35.2373 222.543 35.2359 222.896 35.2929 223.242C35.3324 223.41 35.4065 223.567 35.5104 223.705C35.6143 223.843 35.7457 223.957 35.8963 224.041C36.0469 224.125 36.2134 224.177 36.385 224.193C36.5567 224.209 36.7298 224.189 36.8933 224.134C37.1251 224.047 37.3495 223.941 37.5642 223.818L37.6265 223.786C37.7028 223.75 37.7091 223.747 37.6452 223.778C37.6981 223.688 37.7281 223.864 37.64 223.764H37.6987L37.6282 223.76C37.5897 223.752 37.5534 223.736 37.522 223.713C37.4905 223.69 37.4648 223.66 37.4467 223.625C37.4244 223.556 37.4206 223.546 37.4355 223.595C37.4572 223.626 37.4584 223.763 37.4473 223.63C37.4508 223.674 37.4508 223.72 37.4514 223.765C37.4514 223.882 37.4443 223.996 37.4443 224.112C37.4299 224.399 37.4926 224.685 37.6259 224.941C37.7313 225.113 37.8815 225.253 38.0603 225.346C38.2391 225.439 38.4398 225.482 38.6411 225.47C39.0934 225.448 39.3496 225.133 39.7315 224.961C39.8159 224.918 39.9121 224.905 40.0051 224.923C40.0981 224.941 40.1825 224.989 40.245 225.06C40.2945 225.123 40.3259 225.199 40.3356 225.278C40.3453 225.358 40.3331 225.439 40.3002 225.512C40.212 225.672 40.1887 225.859 40.2349 226.036C40.2812 226.212 40.3935 226.364 40.5487 226.46C40.7077 226.551 40.8961 226.576 41.0733 226.529C41.2505 226.483 41.4024 226.369 41.4963 226.211C41.6507 225.935 41.7296 225.623 41.7249 225.306C41.7203 224.99 41.6323 224.68 41.4698 224.409C41.3073 224.137 41.0761 223.913 40.7994 223.76C40.5228 223.606 40.2105 223.528 39.8942 223.534C39.683 223.537 39.4741 223.578 39.2773 223.654C39.0348 223.733 38.8119 223.863 38.6235 224.035C38.3779 224.34 38.5477 224.027 38.5582 224.09C38.5582 224.083 38.8044 224.227 38.8226 224.24L38.8467 224.303C38.8291 224.224 38.8257 224.226 38.8367 224.308C38.8367 224.243 38.8297 224.176 38.8297 224.11C38.8529 223.804 38.8301 223.496 38.7621 223.197C38.705 223.005 38.5992 222.832 38.455 222.694C38.3108 222.556 38.1332 222.457 37.9396 222.408C37.5673 222.349 37.1858 222.424 36.8645 222.622C36.7418 222.694 36.6153 222.759 36.4855 222.818C36.5995 222.775 36.4479 222.832 36.4297 222.825C36.3445 222.792 36.5108 222.825 36.519 222.825C36.5672 222.846 36.6436 222.947 36.6506 222.949C36.6201 222.942 36.6218 222.835 36.6207 222.815C36.6048 222.572 36.6859 222.33 36.6859 222.088C36.6945 221.858 36.6471 221.629 36.5477 221.421C36.4483 221.214 36.2999 221.033 36.1154 220.896C35.9178 220.75 35.6763 220.677 35.4312 220.688C35.1861 220.7 34.9523 220.795 34.7688 220.958C34.1414 221.535 34.3975 222.478 34.6784 223.158C34.9907 223.931 35.4707 224.626 36.0837 225.191C36.6967 225.757 37.4275 226.18 38.2233 226.429C39.2274 226.7 40.2623 226.841 41.3025 226.848C41.4862 226.848 41.6623 226.775 41.7922 226.645C41.9221 226.515 41.9951 226.339 41.9951 226.155C41.9951 225.971 41.9221 225.795 41.7922 225.665C41.6623 225.535 41.4862 225.462 41.3025 225.462L41.3065 225.464Z" fill="#008A41"/>
<path d="M41.897 226.142C42.0251 224.849 42.1731 223.467 42.9968 222.403C43.3556 221.945 43.8019 221.562 44.3098 221.277C44.5416 221.144 44.7863 221.035 45.0401 220.952C45.1823 220.906 45.3262 220.874 45.4702 220.835C45.7251 220.765 45.422 220.827 45.5524 220.817C45.5893 220.814 45.6264 220.812 45.6634 220.813C45.7508 220.818 45.7618 220.818 45.6964 220.813C45.7974 220.754 45.7657 220.875 45.7204 220.813L45.6793 220.783C45.6284 220.735 45.5938 220.672 45.5805 220.603C45.5673 220.534 45.5759 220.463 45.6053 220.399C45.5971 220.311 45.7516 220.38 45.5271 220.344C45.1641 220.257 44.7885 220.236 44.4179 220.281C44.2462 220.311 44.0828 220.377 43.9384 220.475C43.794 220.573 43.6719 220.7 43.5801 220.848C43.4882 220.997 43.4287 221.163 43.4054 221.335C43.3822 221.508 43.3957 221.684 43.445 221.851C43.5318 222.1 43.6346 222.343 43.7529 222.578C43.7082 222.467 43.7529 222.596 43.7641 222.625C43.7893 222.71 43.7453 222.742 43.774 222.644C43.7803 222.598 43.7938 222.553 43.814 222.511C43.8357 222.476 43.865 222.447 43.8998 222.426C43.9801 222.397 43.9818 222.393 43.9051 222.416C43.9156 222.399 44.0678 222.416 43.9051 222.412C43.8399 222.412 43.774 222.412 43.7088 222.408C43.6084 222.403 43.5085 222.391 43.408 222.387C43.1172 222.359 42.8245 222.415 42.5644 222.548C42.368 222.665 42.2125 222.84 42.1192 223.049C42.0259 223.258 41.9994 223.49 42.0433 223.715C42.1619 224.044 42.3122 224.36 42.4921 224.66C42.5189 224.742 42.5198 224.831 42.4948 224.914C42.4697 224.997 42.4198 225.07 42.3519 225.124C42.2839 225.178 42.2011 225.209 42.1147 225.215C42.0282 225.22 41.9422 225.199 41.8682 225.153C41.0892 224.717 40.39 225.914 41.1691 226.35C41.4488 226.518 41.769 226.607 42.0954 226.607C42.4217 226.607 42.7419 226.518 43.0216 226.35C43.3013 226.181 43.53 225.94 43.6831 225.652C43.8363 225.364 43.9081 225.039 43.8909 224.713C43.8298 224.29 43.674 223.887 43.4351 223.533C43.4351 223.533 43.361 223.415 43.3904 223.425C43.5702 223.483 43.2999 223.707 43.2635 223.745L43.1977 223.774C43.276 223.757 43.2719 223.756 43.1854 223.771C43.2488 223.768 43.3117 223.771 43.3751 223.771C43.6922 223.814 44.0142 223.803 44.3275 223.738C44.5165 223.684 44.6885 223.581 44.8272 223.442C44.9658 223.302 45.0666 223.129 45.12 222.94C45.1888 222.554 45.1175 222.156 44.9191 221.818C44.8973 221.771 44.7863 221.516 44.8198 221.609C44.8157 221.597 44.7611 221.423 44.7646 221.423C44.8333 221.423 44.6917 221.661 44.7746 221.492C44.8715 221.296 44.68 221.697 44.6664 221.645C44.6606 221.623 44.7957 221.63 44.8016 221.63C45.0436 221.636 45.281 221.722 45.5248 221.731C45.761 221.748 45.9977 221.705 46.2125 221.605C46.4274 221.506 46.6134 221.353 46.7532 221.162C46.8967 220.96 46.9654 220.714 46.9477 220.466C46.9301 220.219 46.8271 219.985 46.6563 219.805C46.0911 219.227 45.1705 219.431 44.5008 219.676C43.7435 219.951 43.0509 220.379 42.4663 220.933C41.8244 221.553 41.337 222.316 41.0433 223.159C40.744 224.128 40.5645 225.131 40.5087 226.144C40.51 226.327 40.5833 226.503 40.713 226.632C40.8426 226.762 41.0181 226.835 41.2014 226.837C41.3841 226.833 41.5585 226.759 41.6877 226.63C41.8169 226.501 41.8909 226.326 41.894 226.144L41.897 226.142Z" fill="#008A41"/>
<path d="M41.8341 224.693C41.2466 223.586 40.5436 222.545 39.7367 221.586C39.5476 221.361 39.3517 221.14 39.1492 220.925C38.9635 220.754 38.7922 220.567 38.6369 220.367C38.6076 220.318 38.614 220.291 38.5976 220.281C38.5854 220.232 38.5854 220.229 38.5976 220.271C38.6079 220.299 38.6079 220.33 38.5976 220.358C38.6058 220.413 38.5424 220.401 38.6035 220.348C38.4936 220.443 38.4084 220.532 38.2357 220.479C38.171 220.459 38.1282 220.389 38.0782 220.361C38.0283 220.334 38.0918 220.339 38.0782 220.378C38.0512 220.458 37.9801 220.639 37.9366 220.744L39.2726 221.112C39.2902 221.026 39.3537 220.941 39.2726 221.04C39.3033 221.004 39.3366 220.97 39.3725 220.939C39.3278 220.977 39.34 220.972 39.4089 220.926C39.3131 220.962 39.5111 220.895 39.5135 220.895C39.3795 220.923 39.6968 220.923 39.5804 220.899C39.7055 220.932 39.8207 220.995 39.9161 221.083C40.0114 221.17 40.0842 221.28 40.128 221.401C40.2699 221.778 40.3314 222.18 40.3084 222.582C40.311 223.041 40.2638 223.499 40.1674 223.948C40.1229 224.125 40.1484 224.313 40.2384 224.471C40.3285 224.63 40.4762 224.748 40.6509 224.8C40.8279 224.847 41.0163 224.823 41.1755 224.733C41.3348 224.642 41.4523 224.493 41.5028 224.317C41.7801 223.024 41.914 221.351 41.0245 220.259C40.8334 220.014 40.5858 219.819 40.3029 219.69C40.0201 219.562 39.7103 219.504 39.4001 219.521C39.0588 219.546 38.7338 219.677 38.4713 219.896C38.2088 220.116 38.0222 220.413 37.9378 220.744C37.889 220.922 37.9125 221.111 38.0032 221.271C38.094 221.431 38.2445 221.548 38.4216 221.597C38.5988 221.646 38.7881 221.622 38.9479 221.531C39.1077 221.441 39.2249 221.29 39.2738 221.113C39.3896 220.889 39.45 220.64 39.45 220.388C39.45 220.135 39.3896 219.887 39.2738 219.662C39.1536 219.455 38.9692 219.292 38.7484 219.199C38.5276 219.106 38.2825 219.087 38.05 219.145C37.8184 219.222 37.6156 219.368 37.4681 219.562C37.3207 219.757 37.2356 219.992 37.224 220.235C37.2222 220.458 37.2652 220.678 37.3503 220.883C37.4354 221.088 37.5608 221.274 37.7193 221.43C38.2439 222.03 38.8038 222.585 39.2797 223.228C39.7856 223.914 40.2393 224.637 40.6368 225.392C40.7295 225.55 40.8814 225.666 41.0591 225.712C41.2368 225.759 41.4258 225.733 41.5844 225.64C41.743 225.547 41.8583 225.395 41.9049 225.218C41.9516 225.04 41.9257 224.851 41.8329 224.692L41.8341 224.693Z" fill="#008A41"/>
<path d="M420.831 295.211C420.732 295.256 405.474 295.256 405.574 295.3C400.092 286.216 397.966 278.538 397.263 272.919C397.108 271.632 397.228 270.327 397.614 269.09C398 267.853 398.643 266.712 399.501 265.741C400.359 264.77 401.413 263.992 402.594 263.458C403.774 262.924 405.054 262.645 406.35 262.641L420.16 262.561C421.368 262.552 422.565 262.782 423.684 263.237C424.803 263.692 425.822 264.363 426.682 265.212C427.541 266.06 428.225 267.07 428.695 268.183C429.164 269.297 429.41 270.491 429.417 271.7C429.448 278.528 427.921 287.89 420.831 295.211Z" fill="#008A41"/>
<path d="M412.948 263.726C413.695 257.662 413.393 251.514 412.057 245.553C411.834 244.554 410.298 244.976 410.521 245.976C411.814 251.801 412.096 257.804 411.355 263.724C411.229 264.74 412.823 264.729 412.948 263.726Z" fill="#008A41"/>
<path d="M415.082 264.122C415.441 259.065 416.705 254.114 418.813 249.505C419.238 248.579 417.865 247.768 417.438 248.7C415.205 253.562 413.868 258.786 413.488 264.122C413.416 265.145 415.009 265.141 415.082 264.122Z" fill="#008A41"/>
<path d="M410.623 263.959C410.16 258.298 408.54 252.791 405.861 247.782C405.377 246.878 404.001 247.682 404.486 248.587C407.035 253.347 408.582 258.579 409.03 263.96C409.115 264.974 410.708 264.983 410.623 263.959Z" fill="#008A41"/>
<path d="M405.293 247.253C404.384 246.921 404.282 245.534 404.07 244.737C403.925 244.125 403.691 243.538 403.376 242.994C403.014 242.452 402.601 241.945 402.142 241.482C401.767 241.138 401.462 240.724 401.245 240.264C401.178 240.087 401.16 239.896 401.191 239.71C401.221 239.63 401.244 239.547 401.258 239.463L401.27 239.436C401.32 239.338 401.244 239.353 401.043 239.478C401.043 239.491 401.428 239.704 401.469 239.734C402.569 240.595 403.41 241.743 403.9 243.052C404.39 244.36 404.51 245.779 404.246 247.151C404.04 248.15 405.575 248.58 405.783 247.575C406.129 245.864 405.984 244.089 405.362 242.458C404.741 240.826 403.67 239.404 402.273 238.358C401.912 238.059 401.458 237.897 400.989 237.9C400.709 237.93 400.444 238.043 400.226 238.223C400.009 238.403 399.85 238.643 399.768 238.913C399.632 239.278 399.575 239.668 399.6 240.057C399.624 240.446 399.731 240.826 399.912 241.171C400.574 242.49 401.944 243.248 402.402 244.7C402.911 246.312 403.049 248.124 404.87 248.788C405.073 248.842 405.29 248.814 405.474 248.71C405.657 248.606 405.792 248.434 405.85 248.231C405.901 248.027 405.872 247.812 405.769 247.629C405.665 247.446 405.495 247.311 405.293 247.251V247.253Z" fill="#008A41"/>
<path d="M411.68 245.123C410.735 244.78 410.644 243.499 410.388 242.674C409.918 241.442 409.217 240.311 408.323 239.343C407.962 238.953 407.705 238.479 407.575 237.964C407.56 237.864 407.558 237.764 407.568 237.664C407.578 237.569 407.657 237.421 407.644 237.334L407.656 237.306C407.706 237.209 407.63 237.224 407.429 237.349C407.475 237.366 407.52 237.386 407.564 237.408C407.682 237.511 407.836 237.587 407.962 237.688C408.973 238.501 409.753 239.565 410.227 240.773C410.769 242.12 410.91 243.596 410.633 245.021C410.426 246.02 411.962 246.451 412.169 245.445C412.508 243.774 412.377 242.041 411.791 240.439C411.205 238.837 410.186 237.43 408.848 236.372C408.526 236.088 408.138 235.889 407.719 235.791C407.44 235.742 407.152 235.782 406.896 235.904C406.641 236.026 406.429 236.226 406.292 236.474C406.103 236.833 405.994 237.23 405.973 237.636C405.952 238.042 406.02 238.447 406.172 238.824C406.735 240.271 408.13 241.19 408.692 242.629C408.99 243.393 409.113 244.207 409.438 244.96C409.602 245.357 409.849 245.714 410.163 246.007C410.476 246.301 410.849 246.524 411.256 246.661C412.221 247.014 412.637 245.472 411.68 245.124L411.68 245.123Z" fill="#008A41"/>
<path d="M418.768 248.74C418.154 247.603 419.013 246.254 419.37 245.162C419.755 243.987 419.697 242.761 419.971 241.569C420.047 241.084 420.292 240.642 420.664 240.321C420.765 240.244 421.085 240.157 420.833 240.121C420.648 240.095 420.738 240.127 420.788 240.304C420.861 240.576 420.911 240.853 420.937 241.133C421.058 242.362 420.884 243.603 420.43 244.752C419.944 246.004 419.126 247.098 418.063 247.917C417.886 248.029 417.758 248.203 417.705 248.406C417.652 248.608 417.678 248.824 417.778 249.007C417.885 249.189 418.06 249.32 418.264 249.374C418.468 249.427 418.685 249.398 418.868 249.293C420.157 248.325 421.17 247.037 421.807 245.556C422.444 244.074 422.682 242.452 422.498 240.851C422.395 240.049 422.247 238.978 421.368 238.664C420.508 238.357 419.634 238.98 419.123 239.638C418.17 240.867 418.347 242.467 418.057 243.908C417.668 245.841 416.328 247.574 417.393 249.544C417.881 250.447 419.258 249.643 418.769 248.74L418.768 248.74Z" fill="#008A41"/>
<path d="M412.027 239.512C411.366 238.301 412.017 236.942 412.346 235.727C412.547 234.523 412.817 233.331 413.153 232.157C413.311 231.716 413.597 231.333 413.975 231.057C414.051 231.009 414.129 230.966 414.21 230.929C414.202 230.875 413.969 230.896 413.975 230.877C413.997 230.99 414.03 231.1 414.072 231.206C414.136 231.482 414.179 231.763 414.203 232.046C414.296 233.23 414.118 234.419 413.682 235.524C413.197 236.775 412.378 237.87 411.316 238.689C411.139 238.8 411.01 238.975 410.957 239.177C410.904 239.38 410.93 239.595 411.03 239.779C411.138 239.96 411.313 240.092 411.517 240.145C411.721 240.199 411.937 240.17 412.12 240.064C413.4 239.104 414.409 237.828 415.047 236.36C415.685 234.892 415.93 233.284 415.759 231.693C415.666 230.932 415.553 229.937 414.811 229.518C413.997 229.056 413.062 229.636 412.501 230.236C411.422 231.392 411.295 233.001 410.999 234.478C410.601 236.461 409.577 238.356 410.647 240.318C411.138 241.219 412.514 240.415 412.023 239.514L412.027 239.512Z" fill="#008A41"/>
<path d="M416.789 254.735C417.361 253.803 418.523 253.71 419.506 253.535C420.121 253.435 420.726 253.279 421.313 253.07C421.951 252.835 422.564 252.532 423.208 252.31C423.745 252.07 424.348 252.017 424.919 252.159C424.951 252.17 425.311 252.368 425.325 252.361C425.376 252.333 425.238 252.151 425.249 252.151C425.242 252.151 425.186 252.233 425.174 252.241C424.93 252.409 424.728 252.653 424.486 252.829C423.491 253.543 422.34 254.01 421.129 254.19C419.787 254.399 418.414 254.235 417.16 253.714C416.976 253.614 416.761 253.588 416.558 253.641C416.356 253.694 416.181 253.822 416.07 254C415.965 254.182 415.936 254.399 415.989 254.603C416.043 254.807 416.174 254.982 416.355 255.09C417.875 255.745 419.543 255.98 421.184 255.771C422.826 255.563 424.381 254.917 425.689 253.903C426.335 253.391 427.058 252.71 426.785 251.799C426.533 250.955 425.478 250.582 424.692 250.498C422.977 250.316 421.467 251.477 419.853 251.85C418.167 252.236 416.416 252.303 415.413 253.934C414.874 254.811 416.252 255.612 416.788 254.739L416.789 254.735Z" fill="#008A41"/>
<path d="M412.605 245.041C411.985 243.598 411.916 241.978 412.409 240.487C412.903 238.997 413.926 237.739 415.285 236.952C415.346 236.916 415.409 236.882 415.472 236.849C415.589 236.829 415.607 236.801 415.525 236.767C415.655 236.329 415.475 236.672 415.427 236.784C415.282 237.121 415.135 237.457 414.986 237.792C414.654 238.542 414.313 239.286 413.964 240.026C413.243 241.554 412.489 243.067 411.664 244.542C411.163 245.438 412.538 246.243 413.04 245.346C413.839 243.918 414.568 242.454 415.273 240.975C415.615 240.252 415.95 239.525 416.275 238.794C416.418 238.473 416.56 238.151 416.7 237.828C416.895 237.484 417.028 237.107 417.092 236.716C417.092 236.503 417.047 236.293 416.96 236.098C416.873 235.904 416.746 235.73 416.587 235.588C416.429 235.446 416.242 235.338 416.039 235.273C415.837 235.208 415.622 235.186 415.411 235.209C414.626 235.413 413.909 235.818 413.329 236.384C412.156 237.364 411.29 238.66 410.833 240.119C410.266 242.013 410.408 244.048 411.232 245.845C411.339 246.027 411.514 246.158 411.718 246.212C411.922 246.265 412.139 246.236 412.322 246.131C412.5 246.021 412.629 245.846 412.683 245.643C412.736 245.44 412.709 245.224 412.608 245.041L412.605 245.041Z" fill="#008A41"/>
<path d="M406.907 252.853C405.763 253.367 404.367 252.387 403.342 251.966C402.197 251.496 400.971 251.45 399.804 251.076C399.364 250.957 398.98 250.688 398.716 250.317C398.68 250.242 398.639 250.17 398.591 250.101C398.632 250.111 398.42 250.242 398.511 250.223C398.593 250.207 398.674 250.186 398.757 250.172C399.052 250.125 399.351 250.1 399.65 250.099C400.928 250.082 402.189 250.386 403.319 250.984C404.448 251.582 405.409 252.454 406.113 253.521C406.666 254.381 408.045 253.58 407.489 252.716C406.61 251.362 405.391 250.261 403.954 249.525C402.517 248.789 400.912 248.442 399.3 248.52C398.501 248.571 397.524 248.659 397.114 249.46C396.695 250.275 397.306 251.273 397.914 251.815C399.081 252.857 400.693 252.801 402.113 253.218C403.061 253.496 403.915 254.012 404.847 254.334C405.777 254.68 406.806 254.644 407.709 254.234C407.89 254.126 408.022 253.951 408.075 253.747C408.129 253.543 408.1 253.326 407.995 253.143C407.885 252.965 407.71 252.836 407.507 252.782C407.304 252.729 407.088 252.756 406.905 252.858L406.907 252.853Z" fill="#008A41"/>
</g>
<defs>
<clipPath id="clip0_238_182">
<rect width="470" height="326" fill="white"/>
</clipPath>
</defs>
</svg>
